# xmcd
# 
# Track frame offsets:
#     150
#     19227
#     46320
#     63905
#     76992
#     105417
#     118292
#     135850
#     149170
#     161302
#     173695
#     195340
#     209985
#     219552
#     232827
#     245542
#     254587
# 
# Disc length: 3571
# 
# Revision: 3
# Processed by: cddbd v1.5.2PL0 Copyright (c) Steve Scherf et al.
# Submitted via: fre:ac v1.0.27
# 
DISCID=f00df111
DTITLE=Ray Charles - Ray Charles Sings
DYEAR=0
DGENRE=Blues
TTITLE0=I Can't Stop Loving You
TTITLE1=I've Got A Woman
TTITLE2=What'd I Say
TTITLE3=Makin' Believe
TTITLE4=Makin' Whoopee
TTITLE5=Unchain My Heart
TTITLE6=Ruby
TTITLE7=Crying Time
TTITLE8=Together Again
TTITLE9=Mess Around
TTITLE10=Georgia On My Mind
TTITLE11=Born To Loose
TTITLE12=Busted
TTITLE13=Take These Chains From My Heart
TTITLE14=Yesterday
TTITLE15=Hit The Road Jack
TTITLE16=Eleanor Rigby
EXTD=Bella Musica
EXTT0=
EXTT1=
EXTT2=
EXTT3=
EXTT4=
EXTT5=
EXTT6=
EXTT7=
EXTT8=
EXTT9=
EXTT10=
EXTT11=
EXTT12=
EXTT13=
EXTT14=
EXTT15=
EXTT16=
PLAYORDER=
